<mxfile host="app.diagrams.net" modified="2022-11-02T09:38:08.534Z" agent="5.0 (Windows NT 10.0; Win64; x64) AppleWebKit/537.36 (KHTML, like Gecko) Chrome/106.0.0.0 Safari/537.36" etag="LcnSJ7pS95j6EnaTjA_W" version="20.5.1" type="github">
  <diagram id="s18CkrGor9Ns0kfeX24G" name="第 1 页">
    <mxGraphModel dx="1038" dy="571" grid="1" gridSize="10" guides="1" tooltips="1" connect="1" arrows="1" fold="1" page="1" pageScale="1" pageWidth="827" pageHeight="1169" math="0" shadow="0">
      <root>
        <mxCell id="0" />
        <mxCell id="1" parent="0" />
        <mxCell id="OYdIh6SWeQjIjL63hNTJ-1" value="对象头" style="rounded=0;whiteSpace=wrap;html=1;sketch=1;" vertex="1" parent="1">
          <mxGeometry x="120" y="180" width="80" height="100" as="geometry" />
        </mxCell>
        <mxCell id="OYdIh6SWeQjIjL63hNTJ-2" value="实例数据" style="rounded=0;whiteSpace=wrap;html=1;sketch=1;" vertex="1" parent="1">
          <mxGeometry x="200" y="180" width="80" height="100" as="geometry" />
        </mxCell>
        <mxCell id="OYdIh6SWeQjIjL63hNTJ-3" value="&lt;font face=&quot;Comic Sans MS&quot;&gt;对其填充&lt;/font&gt;" style="rounded=0;whiteSpace=wrap;html=1;sketch=1;" vertex="1" parent="1">
          <mxGeometry x="280" y="180" width="80" height="100" as="geometry" />
        </mxCell>
      </root>
    </mxGraphModel>
  </diagram>
</mxfile>
